<?xml version="1.0" standalone="no"?>
<!DOCTYPE svg PUBLIC "-//W3C//DTD SVG 20010904//EN"
 "http://www.w3.org/TR/2001/REC-SVG-20010904/DTD/svg10.dtd">
<svg version="1.0" xmlns="http://www.w3.org/2000/svg"
 width="72.000000pt" height="72.000000pt" viewBox="0 0 72.000000 72.000000"
 preserveAspectRatio="xMidYMid meet">

<g transform="translate(0.000000,72.000000) scale(0.100000,-0.100000)"
fill="#000000" stroke="none">
<path d="M265 707 c-109 -37 -186 -103 -232 -202 -24 -51 -28 -73 -28 -145 0
-72 4 -94 28 -146 36 -77 104 -145 182 -181 51 -24 73 -28 145 -28 72 0 94 4
145 28 78 36 146 104 182 181 24 52 28 74 28 146 0 72 -4 94 -28 146 -57 123
-177 204 -311 211 -41 1 -88 -3 -111 -10z m183 -157 c20 -5 52 -10 71 -10 l34
0 -5 -112 c-6 -137 -25 -186 -102 -254 -76 -70 -86 -72 -139 -35 -53 36 -90
78 -119 135 -17 32 -22 64 -26 154 l-5 112 34 0 c51 0 106 18 136 44 l28 24
28 -24 c15 -13 44 -28 65 -34z"/>
<path d="M316 520 c-16 -10 -47 -22 -68 -25 l-38 -7 0 -77 c0 -96 31 -167 93
-212 50 -36 60 -36 107 1 60 48 90 118 90 212 l0 77 -37 7 c-21 3 -53 15 -71
25 -39 23 -39 23 -76 -1z m62 -62 c7 -7 12 -25 12 -40 0 -24 4 -28 28 -28 27
0 52 -15 52 -31 0 -16 -33 -39 -56 -39 -20 0 -24 -5 -24 -29 0 -62 -62 -65
-68 -3 -3 25 -8 31 -29 34 -55 6 -58 68 -3 68 26 0 30 3 30 28 0 29 16 52 35
52 6 0 16 -5 23 -12z m-81 -34 c-9 -9 -28 6 -21 18 4 6 10 6 17 -1 6 -6 8 -13
4 -17z m137 5 c-3 -5 -10 -7 -15 -3 -5 3 -7 10 -3 15 3 5 10 7 15 3 5 -3 7
-10 3 -15z m-140 -150 c-3 -5 -10 -7 -15 -3 -5 3 -7 10 -3 15 3 5 10 7 15 3 5
-3 7 -10 3 -15z m140 0 c-3 -5 -10 -7 -15 -3 -5 3 -7 10 -3 15 3 5 10 7 15 3
5 -3 7 -10 3 -15z"/>
</g>
</svg>
